<?xml version="1.0" encoding="utf-8"?>
<!-- Generator: Adobe Illustrator 20.1.0, SVG Export Plug-In . SVG Version: 6.00 Build 0)  -->
<svg version="1.1" id="Layer_1" xmlns="http://www.w3.org/2000/svg" xmlns:xlink="http://www.w3.org/1999/xlink" x="0px" y="0px"
	 viewBox="0 0 293.4 293.6" style="enable-background:new 0 0 293.4 293.6;" xml:space="preserve">
<style type="text/css">
	.st0{fill-rule:evenodd;clip-rule:evenodd;fill:#3A3A3A;}
</style>
<path class="st0" d="M145.9,289c-79,0-143.3-64.2-143.3-143.1C2.6,67,66.9,2.8,145.9,2.8c79,0,143.3,64.2,143.3,143.1
	C289.1,224.8,224.9,289,145.9,289L145.9,289z M266.7,165.5c-4.2-1.3-37.9-11.4-76.2-5.2c16,43.9,22.5,79.7,23.8,87.1
	C241.7,228.9,261.3,199.5,266.7,165.5L266.7,165.5z M193.7,258.6c-1.8-10.7-8.9-48.1-26.1-92.7c-0.3,0.1-0.5,0.2-0.8,0.3
	c-69,24-93.8,71.8-96,76.3c20.8,16.2,46.8,25.8,75.1,25.8C162.8,268.3,179,264.8,193.7,258.6L193.7,258.6z M54.9,227.8
	c2.8-4.7,36.4-60.3,99.5-80.7c1.6-0.5,3.2-1,4.8-1.5c-3.1-6.9-6.4-13.9-9.9-20.7c-61.1,18.3-120.4,17.5-125.8,17.4
	c0,1.2-0.1,2.5-0.1,3.7C23.5,177.5,35.4,206.1,54.9,227.8L54.9,227.8z M26.1,121.1c5.5,0.1,55.9,0.3,113.1-14.9
	c-20.3-36-42.1-66.3-45.4-70.7C59.6,51.6,34,83.1,26.1,121.1L26.1,121.1z M117.2,27.3c3.4,4.5,25.6,34.8,45.7,71.5
	c43.5-16.3,61.9-41,64.1-44.1c-21.6-19.1-50-30.8-81.1-30.8C136,23.9,126.4,25.1,117.2,27.3L117.2,27.3z M240.6,68.8
	c-2.6,3.5-23.1,29.7-68.3,48.2c2.8,5.8,5.6,11.7,8.1,17.7c0.9,2.1,1.8,4.2,2.6,6.3c40.7-5.1,81.2,3.1,85.2,3.9
	C268,116.1,257.6,89.6,240.6,68.8L240.6,68.8z"/>
</svg>
