<svg version="1.1" id="Layer_1" xmlns="http://www.w3.org/2000/svg" xmlns:xlink="http://www.w3.org/1999/xlink" x="0px" y="0px"
	 viewBox="0 0 373.7 746.3" style="enable-background:new 0 0 373.7 746.3;" xml:space="preserve">
<path fill="#F08421" d="M348.6,555.6c0,19.3-15.7,35-35,35h-49.9v106c0,19.3-15.7,35-35,35H58.9c-19.3,0-35-15.7-35-35v-646
	c0-19.3,15.7-35,35-35h169.8c19.3,0,35,15.7,35,35V171h-25.9V50.6c0-4.9-4.2-9.1-9.1-9.1H58.9c-5,0-9.1,4.1-9.1,9.1v646
	c0,4.9,4.2,9.1,9.1,9.1h169.8c4.9,0,9.1-4.2,9.1-9.1v-106h-49.1c-19.3,0-35-15.7-35-35V171h25.9v384.6c0,4.9,4.2,9.1,9.1,9.1h124.9
	c4.9,0,9.1-4.2,9.1-9.1V171h25.9V555.6z"/>
</svg>
